<svg width="574" height="574" viewBox="0 0 574 574" fill="none" xmlns="http://www.w3.org/2000/svg">
<rect x="11" y="11" width="552" height="552" rx="129" fill="white" stroke="white" stroke-width="22"/>
<path d="M428.829 62.3654L431.208 61.7696C441.319 77.8553 451.429 114.793 451.429 154.709C451.429 181.519 444.887 216.669 419.908 216.669C375.303 216.669 349.73 92.7495 267.062 92.7495C246.841 92.7495 183.799 101.686 202.831 177.348C233.757 301.268 388.387 217.861 388.387 267.309C388.387 298.885 327.725 278.033 297.393 277.437C236.136 276.246 204.02 345.355 239.11 400.761C303.935 502.637 417.529 511.574 444.887 451.401C475.813 383.484 343.782 367.398 334.862 398.974C332.483 408.506 333.077 413.868 344.377 426.975L341.404 428.762C309.883 396.591 278.362 338.801 295.014 317.949C335.456 266.713 490.087 348.333 452.024 452.593C414.556 554.469 116 538.979 116 381.101C116 255.394 299.178 267.309 333.077 267.309V263.735C302.151 262.543 122.542 255.394 122.542 145.773C122.542 115.389 136.221 57.0035 202.236 57.0035C285.499 56.4077 331.888 132.07 390.766 132.07C418.124 132.07 443.697 93.3453 428.829 62.3654Z" fill="black"/>
</svg>
